<?xml version="1.0" encoding="UTF-8" standalone="no"?>
<!-- Created with Inkscape (http://www.inkscape.org/) -->

<svg
   width="21.522457mm"
   height="12.807035mm"
   viewBox="0 0 21.522457 12.807035"
   version="1.1"
   id="svg1"
   xml:space="preserve"
   xmlns="http://www.w3.org/2000/svg"
   xmlns:svg="http://www.w3.org/2000/svg"><defs
     id="defs1"><clipPath
       clipPathUnits="userSpaceOnUse"
       id="clipPath6633"><path
         d="M 0,591.499 H 595.276 V 0 H 0 Z"
         transform="translate(-142.40575,-421.62701)"
         id="path6633" /></clipPath><clipPath
       clipPathUnits="userSpaceOnUse"
       id="clipPath6635"><path
         d="M 0,591.499 H 595.276 V 0 H 0 Z"
         transform="translate(-115.35925,-428.49021)"
         id="path6635" /></clipPath><clipPath
       clipPathUnits="userSpaceOnUse"
       id="clipPath6637"><path
         d="M 0,591.499 H 595.276 V 0 H 0 Z"
         transform="translate(-140.83975,-422.03121)"
         id="path6637" /></clipPath><clipPath
       clipPathUnits="userSpaceOnUse"
       id="clipPath6639"><path
         d="M 0,591.499 H 595.276 V 0 H 0 Z"
         transform="translate(-115.23475,-431.18261)"
         id="path6639" /></clipPath><clipPath
       clipPathUnits="userSpaceOnUse"
       id="clipPath6641"><path
         d="M 0,591.499 H 595.276 V 0 H 0 Z"
         transform="translate(-144.68125,-413.18071)"
         id="path6641" /></clipPath><clipPath
       clipPathUnits="userSpaceOnUse"
       id="clipPath6643"><path
         d="M 0,591.499 H 595.276 V 0 H 0 Z"
         transform="translate(-87.406752,-418.43261)"
         id="path6643" /></clipPath><clipPath
       clipPathUnits="userSpaceOnUse"
       id="clipPath6651"><path
         d="M 0,591.499 H 595.276 V 0 H 0 Z"
         transform="translate(-125.40625,-426.81541)"
         id="path6651" /></clipPath></defs><g
     id="layer-MC0"
     transform="matrix(0.26458333,0,0,0.26458334,-3690.7959,-53.745559)"><path
       id="path6631"
       d="m 4.8632328,-1.8865138 c 0.038086,-0.041673 0.09375,-0.085951 0.1640625,-0.1354374 0.070312,-0.046882 0.1582031,-0.072928 0.2695313,-0.072928 0.1171875,0 0.2285156,0.046882 0.3398437,0.1354374 0.1083985,0.09116 0.1640625,0.2135744 0.1640625,0.3646392 0,0.1328328 -0.032226,0.2474337 -0.09375,0.3438026 -0.1347656,0.1745059 -0.3046875,0.34901174 -0.515625,0.52091305 C 4.9804203,-0.56339477 4.748975,-0.41232998 4.4999516,-0.28210171 4.2479984,-0.14926888 3.9784672,-0.04508627 3.6913578,0.03044613 3.4101078,0.10597852 3.1288578,0.145047 2.8476078,0.145047 2.5429203,0.145047 2.2675297,0.09816483 2.0272953,0.0096096 1.7929203,-0.07894542 1.5819828,-0.20396455 1.3944828,-0.3654476 1.2128422,-0.53213979 1.0604984,-0.71966849 0.93745156,-0.92803372 0.811475,-1.1416081 0.71479531,-1.3682053 0.64448281,-1.6052207 c -0.0234375,0.06251 -0.0556641,0.1250191 -0.09375,0.1875287 -0.0410156,0.0573 -0.0908203,0.1146009 -0.15234375,0.1771104 -0.046875,0.06251 -0.11132812,0.1093918 -0.1875,0.1354374 -0.0703125,0.020837 -0.14648437,0.031255 -0.22265625,0.031255 -0.10839843,0 -0.19335937,-0.015627 -0.2578125,-0.052091 -0.0703125,-0.041673 -0.12304687,-0.085951 -0.1640625,-0.1354374 -0.0380859,-0.046882 -0.0644531,-0.098974 -0.0820313,-0.1562739 -0.0146484,-0.06251 -0.0234375,-0.1172054 -0.0234375,-0.1666922 0,-0.075532 0.0322266,-0.1692967 0.09375,-0.281293 0.0644531,-0.1172055 0.13769532,-0.2422246 0.22265625,-0.3750574 0.0878906,-0.138042 0.18164063,-0.2734794 0.28125,-0.4063122 0.09960938,-0.1302283 0.1875,-0.2526429 0.2578125,-0.3646392 0.0849609,-0.2422246 0.18164063,-0.4818446 0.29296875,-0.71886 0.10839844,-0.2344109 0.24609375,-0.4479853 0.41015619,-0.635514 0.1699219,-0.1875287 0.366211,-0.3359889 0.5859375,-0.4479852 0.225586,-0.1172054 0.4951173,-0.1771104 0.8085939,-0.1771104 0.421875,0 0.7675781,0.098973 1.0429687,0.2917113 0.28125,0.1953424 0.5068359,0.4375669 0.6796874,0.7292783 0.038086,0.062509 0.061524,0.1224145 0.070312,0.1771104 0.00586,0.049487 0.011719,0.098974 0.011719,0.1458557 0,0.1536693 -0.055664,0.2786885 -0.1640625,0.3750574 -0.1113282,0.098974 -0.2285157,0.1458556 -0.3515625,0.1458556 -0.1582032,0 -0.28125,-0.044278 -0.375,-0.1354374 -0.09375,-0.088556 -0.18457,-0.1875292 -0.269531,-0.2917118 -0.079102,-0.1041826 -0.1640625,-0.1979469 -0.2578125,-0.281293 -0.087891,-0.088555 -0.2050781,-0.1354374 -0.3515625,-0.1354374 -0.1582031,0 -0.2988281,0.039068 -0.421875,0.1146008 -0.1171875,0.070323 -0.2197265,0.1666922 -0.3046875,0.2917114 -0.079101,0.1250191 -0.140625,0.2656656 -0.1875,0.4167304 -0.041016,0.1458557 -0.058594,0.299525 -0.058594,0.4584035 0,0.2708748 0.029297,0.5261222 0.09375,0.7605331 0.070312,0.2292017 0.1640625,0.4323578 0.28125,0.6042592 0.1230468,0.1666921 0.2753906,0.299525 0.4570312,0.39589388 0.1875,0.0989735 0.3925781,0.14585566 0.6210938,0.14585566 0.2167968,0 0.4277343,-0.0364639 0.6328125,-0.11460087 0.2109375,-0.0755324 0.3984375,-0.16929677 0.5625,-0.28129307 0.1699218,-0.1093917 0.3193359,-0.2292017 0.4453125,-0.3542209 0.1230468,-0.1302282 0.2226562,-0.2500382 0.2929691,-0.3542209 z m -0.082031,0.2917114 c 0,-0.2838977 0.064453,-0.5625862 0.1875,-0.833461 0.1259765,-0.2708747 0.2929687,-0.5052856 0.5039062,-0.7084417 0.2167969,-0.2083653 0.4628906,-0.3750574 0.7382813,-0.5000766 0.28125,-0.1250191 0.5771484,-0.1875287 0.890625,-0.1875287 0.084961,0 0.1816406,0.00781 0.2929687,0.020836 0.1083985,0.015627 0.2167969,0.039069 0.328125,0.072928 0.1083985,0.036464 0.2021485,0.09116 0.28125,0.1666922 0.084961,0.078137 0.1347656,0.1771104 0.1523438,0.3021295 0.2724609,0.1666922 0.4804687,0.395894 0.6210937,0.6876053 0.1464844,0.2917113 0.234375,0.6016546 0.2578125,0.9272252 0.061523,0.015627 0.1201172,0.026046 0.1757813,0.031255 0.052734,0.00781 0.1113281,0.010418 0.1757812,0.010418 0.178711,0 0.3457031,-0.033859 0.5039063,-0.1041826 0.1640622,-0.067719 0.3398432,-0.1666922 0.5273432,-0.2917113 0.08496,-0.06251 0.181641,-0.093764 0.292969,-0.093764 0.178711,0 0.304688,0.06251 0.375,0.1875287 0.07617,0.11981 0.117188,0.2239926 0.117188,0.3125479 0,0.161483 -0.05566,0.2969204 -0.164063,0.4063121 -0.111328,0.1119964 -0.246094,0.20315614 -0.410156,0.27087484 -0.164063,0.0703233 -0.339844,0.12241457 -0.527344,0.15627392 -0.1816404,0.0286502 -0.3369138,0.041673 -0.4687497,0.041673 -0.1113282,0 -0.2226563,-0.005209 -0.3398438,-0.0208365 -0.1113281,-0.0208365 -0.2197265,-0.041673 -0.328125,-0.0625096 -0.1259765,0.41673045 -0.3457031,0.74490569 -0.65625,0.97931657 -0.3046875,0.23441088 -0.7236328,0.35422088 -1.2539062,0.35422088 -0.3925782,0 -0.7265625,-0.0677187 -1.0078125,-0.19794696 C 5.7655768,0.19974291 5.5312018,0.03305073 5.3437018,-0.1675008 5.1562018,-0.37586603 5.0155768,-0.60506778 4.9218268,-0.85510605 4.8280768,-1.1051444 4.7812018,-1.3499735 4.7812018,-1.5948024 Z M 6.128858,-2.1573886 c 0,-0.1380419 0.061524,-0.2734793 0.1875,-0.4063122 0.131836,-0.1380419 0.2753906,-0.23962 0.4335938,-0.3021295 h -0.09375 c -0.1171875,0 -0.2285157,0.039068 -0.328125,0.1146008 -0.1025391,0.078137 -0.1933594,0.1771105 -0.2695313,0.3021296 -0.079101,0.1250192 -0.140625,0.2656657 -0.1875,0.4167305 -0.046875,0.1458556 -0.070312,0.2917113 -0.070312,0.437567 0,0.2161789 0.046875,0.3958939 0.140625,0.5417495 0.09375,0.14064657 0.2050781,0.25003832 0.3398438,0.33338441 0.140625,0.0833461 0.28125,0.14325109 0.421875,0.17711044 0.140625,0.0364639 0.2578125,0.0520913 0.3515625,0.0520913 0.09375,0 0.1875,-0.005209 0.28125,-0.0208365 0.099609,-0.0130228 0.1933593,-0.041673 0.28125,-0.0833461 C 7.7021,-0.64153153 7.7724125,-0.70143653 7.8280766,-0.7717598 7.8896,-0.84729219 7.9335453,-0.94887024 7.9569828,-1.0738894 7.8222172,-1.099935 7.6522953,-1.1572355 7.4413578,-1.2405816 7.2362797,-1.3291368 7.0370609,-1.4281103 6.8437016,-1.5322929 6.6474125,-1.6364755 6.4804203,-1.7432627 6.3397953,-1.855259 6.1991703,-1.9646507 6.1288578,-2.0662288 6.128858,-2.1573886 Z m 1.40625,-0.6771869 c -0.046875,0 -0.102539,0.00781 -0.1640625,0.020837 -0.055664,0.00781 -0.1113281,0.026046 -0.1640625,0.052091 -0.055664,0.020837 -0.102539,0.0573 -0.140625,0.1041826 -0.041016,0.041673 -0.058594,0.098974 -0.058594,0.1666922 0,0.1041826 0.035156,0.2031561 0.1054687,0.2917113 0.076172,0.09116 0.1669922,0.1719013 0.2695313,0.23962 0.1083984,0.070323 0.2255859,0.1250191 0.3515625,0.1666922 0.1318359,0.041673 0.2519531,0.070323 0.3632812,0.083346 C 8.0800297,-1.8187951 8.0565922,-1.9333959 8.0272953,-2.0532059 7.9950688,-2.1704114 7.9569828,-2.2824077 7.9101078,-2.3865903 7.8632328,-2.4907729 7.8046391,-2.5845373 7.7343266,-2.6678834 7.6698734,-2.7512295 7.6054203,-2.8059253 7.535108,-2.8345755 Z m 3.594726,1.5419026 c -0.04687,0.070323 -0.111328,0.1250192 -0.1875,0.1666922 -0.0791,0.036464 -0.158203,0.052091 -0.234375,0.052091 -0.09375,0 -0.202148,-0.033859 -0.328125,-0.1041826 -0.123046,-0.075532 -0.1875,-0.2109698 -0.1875,-0.4063122 0,-0.033859 0.0059,-0.072928 0.01172,-0.1146009 0.0088,-0.041673 0.0293,-0.085951 0.05859,-0.1354374 0.125976,-0.2344108 0.28125,-0.4818445 0.46875,-0.7396965 0.1875,-0.2552474 0.380859,-0.4948674 0.585937,-0.71886 0.202149,-0.2213881 0.404297,-0.4063122 0.609375,-0.5521679 0.210938,-0.1458557 0.401368,-0.2187835 0.574219,-0.2187835 0.240235,0 0.445313,0.088555 0.609375,0.2604565 0.164063,0.1666922 0.304688,0.3620346 0.421875,0.5834227 0.202149,-0.2708748 0.424805,-0.4922629 0.667969,-0.6667687 0.249023,-0.1719014 0.506836,-0.2604566 0.773437,-0.2604566 0.1875,0 0.354493,0.059905 0.503907,0.1771105 0.146484,0.1119963 0.28125,0.2578519 0.398437,0.4375669 0.117188,0.1745059 0.222656,0.3620346 0.316406,0.5625862 0.09961,0.2031561 0.199219,0.3906848 0.292969,0.5625861 0.09375,0.1745058 0.19043,0.3203615 0.292969,0.4375669 0.09961,0.1119964 0.216797,0.1666922 0.351562,0.1666922 0.05274,0 0.09961,0 0.140625,0 0.04687,-0.00521 0.08496,-0.015627 0.117188,-0.031255 0.03809,-0.013023 0.07617,-0.033859 0.117187,-0.062509 0.04687,-0.026046 0.09961,-0.06251 0.164063,-0.1041826 0.09375,-0.067719 0.1875,-0.1041827 0.28125,-0.1041827 0.178711,0 0.307617,0.059905 0.386719,0.1771105 0.07617,0.1119963 0.117187,0.2239926 0.117187,0.3333844 0,0.1953424 -0.111328,0.3724528 -0.328125,0.5313313 -0.210937,0.16148304 -0.544922,0.23962 -0.996094,0.23962 -0.336914,0 -0.615234,-0.0520913 -0.832031,-0.15627392 -0.210937,-0.10939178 -0.386719,-0.24482918 -0.527344,-0.40631218 -0.140625,-0.1588785 -0.254882,-0.3333844 -0.339843,-0.5209131 -0.08789,-0.1875287 -0.164063,-0.3568254 -0.234375,-0.5104948 -0.07031,-0.1588785 -0.146485,-0.2943159 -0.222657,-0.4063122 -0.07031,-0.1093917 -0.164062,-0.1666922 -0.28125,-0.1666922 -0.06445,0 -0.134765,0.052091 -0.210937,0.156274 -0.07031,0.098973 -0.140625,0.2239926 -0.210938,0.3750574 -0.06445,0.1536693 -0.117187,0.3177569 -0.164062,0.4896582 -0.04687,0.1666922 -0.07031,0.317757 -0.07031,0.4479853 0,0.1119963 -0.0088,0.2135743 -0.02344,0.3021296 -0.0088,0.09116 -0.03223,0.1771104 -0.07031,0.2604565 -0.03223,0.078137 -0.08203,0.1354374 -0.152343,0.17711044 -0.07031,0.041673 -0.169922,0.0625096 -0.292969,0.0625096 -0.164063,0 -0.292969,-0.0546959 -0.386719,-0.16669218 -0.08789,-0.10939175 -0.152344,-0.25003826 -0.199219,-0.41673046 -0.04687,-0.1666922 -0.08203,-0.3464072 -0.105468,-0.5417496 -0.02344,-0.2005515 -0.04687,-0.3854757 -0.07031,-0.5521679 -0.01758,-0.1666922 -0.04101,-0.3047341 -0.07031,-0.4167304 -0.03223,-0.1172055 -0.08789,-0.1771105 -0.164063,-0.1771105 -0.0791,0 -0.18457,0.072928 -0.316406,0.2187835 -0.125977,0.1458557 -0.257813,0.3125479 -0.398438,0.5000766 -0.140625,0.1823195 -0.269531,0.3698482 -0.386718,0.5625861 -0.117188,0.1875287 -0.208008,0.3281752 -0.269532,0.4167304 z m 0,0"
       style="fill:#ffffff;fill-opacity:1;fill-rule:nonzero;stroke:none"
       aria-label="CoN"
       transform="matrix(1.3333333,0,0,1.4997704,13957.403,210.6184)" /><path
       id="path6632"
       d="M 0,0 C -0.015,0.187 -0.026,0.501 -0.068,0.811 -0.175,1.602 -0.422,2.344 -0.886,3.001 -1.185,3.425 -1.549,3.772 -2.061,3.927 -3.313,4.303 -4.693,3.774 -5.363,2.489 -5.437,2.348 -5.461,2.16 -5.452,1.997 c 0.024,-0.474 0.078,-0.946 0.118,-1.419 0.056,-0.672 0.143,-1.339 0.338,-1.988 0.252,-0.839 0.704,-1.534 1.471,-1.986 0.566,-0.333 1.18,-0.447 1.823,-0.277 0.503,0.132 0.816,0.506 1.06,0.936 C -0.182,-1.93 -0.021,-1.045 0,0 M 2.666,-0.167 C 2.688,-1.385 2.516,-2.568 2.018,-3.692 1.555,-4.735 0.9,-5.625 -0.073,-6.242 -1.268,-7 -2.537,-7.062 -3.855,-6.607 c -0.749,0.257 -1.383,0.69 -1.932,1.249 -0.325,0.331 -0.646,0.671 -0.933,1.036 -0.7,0.889 -1.056,1.934 -1.262,3.031 -0.077,0.403 -0.072,0.82 -0.119,1.23 -0.02,0.178 -0.054,0.362 -0.123,0.525 -0.22,0.522 -0.203,1.053 -0.104,1.594 0.309,1.696 1.141,3.077 2.569,4.046 1.453,0.984 3.037,1.241 4.698,0.578 C 0.098,6.219 0.937,5.37 1.562,4.306 2.235,3.159 2.586,1.914 2.656,0.588 2.659,0.541 2.666,0.493 2.666,0.446 c 10e-4,-0.204 0,-0.409 0,-0.613"
       style="fill:#ffffff;fill-opacity:1;fill-rule:nonzero;stroke:none"
       transform="matrix(1.3333333,0,0,-1.3333333,14022.797,226.496)"
       clip-path="url(#clipPath6633)" /><path
       id="path6634"
       d="m 0,0 c 0.071,0 0.143,0.003 0.214,-0.001 0.262,-0.014 0.464,-0.137 0.574,-0.371 0.071,-0.149 0.118,-0.316 0.149,-0.481 0.132,-0.726 0.26,-1.455 0.378,-2.184 0.068,-0.423 0.107,-0.85 0.167,-1.274 0.092,-0.648 0.191,-1.295 0.287,-1.944 0.099,-0.68 0.215,-1.357 0.295,-2.04 0.073,-0.613 0.186,-1.218 0.302,-1.822 0.06,-0.311 0.087,-0.631 0.094,-0.946 0.01,-0.44 -0.287,-0.768 -0.72,-0.829 -0.424,-0.059 -0.85,-0.099 -1.273,-0.168 -0.589,-0.096 -1.309,0.336 -1.384,1.113 -0.048,0.491 -0.086,0.983 -0.15,1.471 -0.087,0.663 -0.196,1.322 -0.294,1.983 l -0.326,2.194 c 0.059,0.352 -0.117,0.666 -0.163,1 -0.071,0.528 -0.133,1.056 -0.196,1.583 -0.039,0.322 -0.073,0.645 -0.107,0.967 -0.012,0.116 -0.029,0.233 -0.028,0.35 0.004,0.345 0.146,0.628 0.412,0.845 0.352,0.287 0.764,0.436 1.207,0.501 0.186,0.028 0.374,0.041 0.561,0.061 0,-0.002 0,-0.005 0.001,-0.008"
       style="fill:#ffffff;fill-opacity:1;fill-rule:nonzero;stroke:none"
       transform="matrix(1.3333333,0,0,-1.3333333,13986.735,217.34507)"
       clip-path="url(#clipPath6635)" /><path
       id="path6636"
       d="m 0,0 c -0.014,-0.395 -0.067,-0.733 -0.246,-1.039 -0.05,-0.085 -0.108,-0.17 -0.179,-0.235 -0.194,-0.181 -0.432,-0.2 -0.676,-0.134 -0.369,0.099 -0.612,0.347 -0.761,0.691 -0.1,0.23 -0.146,0.473 -0.173,0.72 -0.028,0.251 -0.046,0.504 -0.069,0.756 -0.009,0.1 0.017,0.19 0.07,0.277 0.263,0.435 0.764,0.634 1.243,0.487 0.17,-0.051 0.299,-0.16 0.405,-0.297 C -0.173,0.95 -0.064,0.635 -0.024,0.294 -0.011,0.181 -0.006,0.067 0,0"
       style="fill:#ffffff;fill-opacity:1;fill-rule:nonzero;stroke:none"
       transform="matrix(1.3333333,0,0,-1.3333333,14020.709,225.95707)"
       clip-path="url(#clipPath6637)" /><path
       id="path6638"
       d="m 0,0 c -0.015,-0.394 -0.068,-0.732 -0.246,-1.039 -0.05,-0.084 -0.108,-0.169 -0.179,-0.235 -0.195,-0.18 -0.432,-0.2 -0.676,-0.134 -0.369,0.099 -0.612,0.347 -0.761,0.692 -0.1,0.23 -0.147,0.473 -0.174,0.719 -0.027,0.252 -0.045,0.504 -0.068,0.756 -0.009,0.1 0.017,0.19 0.069,0.277 0.264,0.436 0.765,0.634 1.244,0.487 0.17,-0.051 0.298,-0.16 0.405,-0.297 0.213,-0.275 0.321,-0.59 0.362,-0.932 C -0.011,0.182 -0.006,0.068 0,0"
       style="fill:#ffffff;fill-opacity:1;fill-rule:nonzero;stroke:none"
       transform="matrix(1.3333333,0,0,-1.3333333,13986.569,213.7552)"
       clip-path="url(#clipPath6639)" /><path
       id="path6640"
       d="m 0,0 c -0.035,0.012 -0.071,0.022 -0.106,0.034 -0.224,0.075 -0.401,0.208 -0.456,0.446 -0.055,0.234 0.026,0.449 0.208,0.588 1.271,0.979 1.907,2.343 2.342,3.828 0.386,1.316 0.575,2.66 0.543,4.032 -0.027,1.219 -0.233,2.409 -0.687,3.543 -0.757,1.887 -1.968,3.395 -3.773,4.385 -0.253,0.139 -0.52,0.251 -0.785,0.365 -0.21,0.091 -0.341,0.246 -0.422,0.452 v 0.257 c 0.069,0.103 0.118,0.23 0.21,0.306 0.101,0.083 0.238,0.12 0.361,0.178 h 0.056 c 0.089,-0.032 0.179,-0.06 0.266,-0.096 1.778,-0.723 3.166,-1.917 4.216,-3.514 C 2.989,13.257 3.53,11.549 3.682,9.71 3.696,9.533 3.717,9.355 3.734,9.179 V 8.096 C 3.726,8.051 3.712,8.007 3.71,7.962 3.643,6.667 3.425,5.399 3.017,4.167 2.614,2.948 2.063,1.811 1.173,0.864 0.859,0.531 0.544,0.194 0.114,0 Z"
       style="fill:#ffffff;fill-opacity:1;fill-rule:nonzero;stroke:none"
       transform="matrix(1.3333333,0,0,-1.3333333,14025.831,237.75773)"
       clip-path="url(#clipPath6641)" /><path
       id="path6642"
       d="m 0,0 v 0.142 c 0.057,0.046 0.067,0.114 0.076,0.178 0.02,0.143 0.067,0.276 0.129,0.405 0.021,0.042 0.039,0.087 0.045,0.133 0.025,0.205 0.078,0.395 0.169,0.588 0.569,1.215 1.142,2.43 1.657,3.67 0.257,0.617 0.481,1.247 0.793,1.842 0.282,0.537 0.553,1.082 0.794,1.639 0.277,0.639 0.691,1.161 1.233,1.591 0.165,0.128 0.339,0.204 0.545,0.214 C 5.595,10.401 5.748,10.401 5.9,10.401 6.344,10.34 6.71,10.116 7.062,9.859 7.416,9.602 7.68,9.296 7.638,8.819 7.635,8.792 7.643,8.763 7.649,8.735 7.703,8.499 7.827,8.4 8.07,8.395 8.234,8.391 8.391,8.427 8.543,8.481 c 0.415,0.15 0.831,0.297 1.245,0.448 0.432,0.157 0.858,0.134 1.278,-0.034 0.435,-0.174 0.832,-0.415 1.205,-0.696 0.469,-0.353 0.844,-0.804 1.252,-1.22 0.1,-0.102 0.198,-0.207 0.289,-0.316 0.533,-0.644 1.216,-0.787 1.991,-0.575 0.525,0.143 1.027,0.363 1.541,0.548 0.468,0.169 0.947,0.276 1.442,0.303 0.496,0.028 0.929,-0.149 1.318,-0.448 0.394,-0.302 0.729,-0.666 1.085,-1.007 1.125,-1.077 2.208,-2.194 3.155,-3.436 0.198,-0.261 0.462,-0.481 0.535,-0.823 V 0.968 C 24.842,0.943 24.848,0.9 24.837,0.866 24.758,0.605 24.604,0.419 24.344,0.315 23.996,0.176 23.646,0.045 23.28,-0.043 22.775,-0.164 22.357,-0.045 22.021,0.363 21.42,1.092 20.812,1.815 20.203,2.536 19.812,3 19.419,3.464 19.01,3.913 18.606,4.355 17.751,4.568 17.127,4.167 16.705,3.896 16.26,3.658 15.825,3.406 15.451,3.189 15.081,2.967 14.704,2.757 14.224,2.489 13.841,2.574 13.504,3.005 13.39,3.151 13.288,3.306 13.19,3.463 12.764,4.149 12.198,4.719 11.645,5.3 11.256,5.709 10.827,6.063 10.324,6.325 10.024,6.48 9.709,6.514 9.384,6.448 8.874,6.345 8.4,6.135 7.919,5.947 6.903,5.554 6.139,4.879 5.636,3.909 5.347,3.352 5.113,2.771 4.931,2.172 4.755,1.592 4.495,1.043 4.38,0.44 4.293,-0.02 3.967,-0.288 3.488,-0.354 3.292,-0.381 3.101,-0.345 2.907,-0.347 2.509,-0.351 2.11,-0.364 1.712,-0.373 1.54,-0.377 1.366,-0.346 1.197,-0.399 H 0.599 C 0.344,-0.35 0.118,-0.256 0,0"
       style="fill:#ffffff;fill-opacity:1;fill-rule:nonzero;stroke:none"
       transform="matrix(1.3333333,0,0,-1.3333333,13949.465,230.7552)"
       clip-path="url(#clipPath6643)" /><path
       id="path6650"
       d="m 0,0 c -0.402,0.027 -0.827,-0.14 -1.209,-0.431 -0.383,-0.293 -0.714,-0.64 -0.896,-1.088 -0.299,-0.73 -0.56,-1.477 -0.843,-2.214 -0.32,-0.834 -0.351,-1.694 -0.217,-2.563 0.154,-0.997 0.748,-1.634 1.7,-1.914 0.552,-0.163 1.123,-0.267 1.69,-0.371 0.651,-0.12 1.242,0.037 1.756,0.461 0.452,0.372 0.794,0.825 1.041,1.354 0.251,0.537 0.349,1.106 0.411,1.689 0.067,0.634 0.036,1.261 -0.089,1.882 -0.131,0.655 -0.459,1.228 -0.787,1.8 C 2.008,-0.437 1.168,-0.008 0,0 M -0.204,2.987 C 0.017,2.949 0.237,2.898 0.46,2.874 1.622,2.743 2.733,2.459 3.727,1.812 4.25,1.47 4.739,1.092 5.104,0.572 5.44,0.095 5.585,-0.452 5.691,-1.014 5.822,-1.711 5.967,-2.407 6.074,-3.108 6.161,-3.68 6.227,-4.257 6.26,-4.833 c 0.067,-1.155 0.104,-2.313 0.156,-3.469 0.077,-1.706 0.208,-3.411 0.161,-5.121 -0.017,-0.611 -0.058,-1.223 -0.093,-1.834 -0.033,-0.582 -0.063,-1.165 -0.107,-1.746 -0.074,-0.991 -0.078,-1.99 -0.34,-2.961 -0.102,-0.378 -0.191,-0.761 -0.302,-1.137 -0.038,-0.128 -0.101,-0.261 -0.19,-0.359 -0.408,-0.455 -0.818,-0.91 -1.251,-1.344 -0.529,-0.53 -1.201,-0.796 -1.923,-0.943 -0.37,-0.075 -0.74,-0.161 -1.115,-0.202 -0.778,-0.086 -1.48,0.095 -2.079,0.633 -1.448,1.301 -2.898,2.6 -4.129,4.119 -0.096,0.118 -0.2,0.228 -0.303,0.341 -0.461,0.502 -0.171,1.218 0.335,1.39 0.376,0.127 0.741,0.287 1.123,0.39 0.445,0.119 0.831,-0.026 1.141,-0.368 0.973,-1.078 1.95,-2.154 2.92,-3.235 0.283,-0.315 0.595,-0.587 1.031,-0.624 0.215,-0.018 0.445,0.021 0.653,0.083 0.891,0.268 1.413,0.902 1.631,1.778 0.139,0.558 0.241,1.132 0.287,1.705 0.096,1.215 0.152,2.433 0.209,3.651 0.04,0.829 0.067,1.659 0.076,2.489 0.005,0.378 -0.04,0.757 -0.07,1.136 -0.014,0.176 -0.063,0.212 -0.244,0.224 -0.355,0.023 -0.687,-0.062 -1.003,-0.214 -0.565,-0.274 -1.154,-0.474 -1.772,-0.589 -0.826,-0.154 -1.632,-0.132 -2.445,0.109 -1.006,0.3 -1.976,0.66 -2.842,1.268 -0.603,0.423 -1.145,0.909 -1.528,1.55 -0.455,0.761 -0.587,1.59 -0.502,2.463 0.035,0.359 0.068,0.718 0.081,1.078 0.028,0.699 0.198,1.366 0.428,2.021 0.048,0.139 0.104,0.276 0.14,0.417 0.157,0.626 0.544,1.132 0.871,1.668 0.377,0.62 0.759,1.237 1.145,1.851 0.366,0.583 0.821,1.076 1.483,1.321 0.303,0.112 0.628,0.168 0.944,0.25 0.026,0.007 0.05,0.021 0.075,0.031 z"
       style="fill:#ffffff;fill-opacity:1;fill-rule:nonzero;stroke:none"
       transform="matrix(1.3333333,0,0,-1.3333333,14000.131,219.57813)"
       clip-path="url(#clipPath6651)" /></g></svg>
