<?xml version="1.0" encoding="UTF-8" standalone="no"?>
<!-- Created with Inkscape (http://www.inkscape.org/) -->

<svg
   width="4.6015277mm"
   height="4.5156684mm"
   viewBox="0 0 4.6015276 4.5156684"
   version="1.1"
   id="svg1"
   xml:space="preserve"
   xmlns="http://www.w3.org/2000/svg"
   xmlns:svg="http://www.w3.org/2000/svg"><defs
     id="defs1"><clipPath
       clipPathUnits="userSpaceOnUse"
       id="clipPath6653"><path
         d="M 0,591.499 H 595.276 V 0 H 0 Z"
         transform="translate(-121.88725,-450.61521)"
         id="path6653" /></clipPath><clipPath
       clipPathUnits="userSpaceOnUse"
       id="clipPath6655"><path
         d="M 0,591.499 H 595.276 V 0 H 0 Z"
         transform="translate(-126.77125,-458.04491)"
         id="path6655" /></clipPath></defs><g
     id="layer-MC0"
     transform="matrix(0.26458333,0,0,0.26458334,-3700.0813,-45.190864)"><path
       id="path6652"
       d="M 0,0 V 1.134 C 0,1.921 0,2.709 -0.001,3.497 -0.002,3.867 -0.178,4.041 -0.55,4.041 H -2.739 C -3.101,4.041 -3.281,3.863 -3.281,3.503 -3.283,2.37 -3.283,1.237 -3.283,0.104 v -0.111 c -0.054,-0.003 -0.097,-0.008 -0.139,-0.008 -0.778,0 -1.557,-0.002 -2.335,10e-4 -0.262,0 -0.505,0.063 -0.635,0.316 -0.057,0.112 -0.095,0.248 -0.095,0.374 -0.006,2.007 -0.004,4.014 -0.005,6.021 -0.001,0.263 0.113,0.458 0.311,0.62 0.962,0.784 1.922,1.57 2.882,2.355 0.398,0.324 0.793,0.65 1.191,0.974 0.312,0.255 0.587,0.268 0.901,0.017 C -0.689,10.251 -0.18,9.828 0.333,9.409 1.032,8.838 1.731,8.267 2.431,7.696 2.597,7.56 2.762,7.422 2.931,7.288 3.126,7.132 3.211,6.928 3.211,6.68 3.209,4.686 3.21,2.691 3.21,0.697 3.21,0.268 2.962,-0.006 2.535,-0.012 1.709,-0.021 0.882,-0.014 0.056,-0.014 0.043,-0.014 0.03,-0.008 0,0"
       style="fill:#7b7979;fill-opacity:1;fill-rule:nonzero;stroke:none"
       transform="matrix(1.3333333,0,0,-1.3333333,13995.439,187.84507)"
       clip-path="url(#clipPath6653)" /><path
       id="path6654"
       d="m 0,0 c -0.008,-0.13 0.004,-0.267 -0.029,-0.391 -0.093,-0.352 -0.385,-0.538 -0.744,-0.493 -0.295,0.036 -0.546,0.313 -0.547,0.645 -10e-4,0.15 -0.066,0.223 -0.17,0.305 -0.668,0.527 -1.331,1.059 -1.997,1.588 -0.865,0.687 -1.728,1.375 -2.594,2.06 -0.3,0.236 -0.616,0.221 -0.911,-0.017 -0.749,-0.6 -1.501,-1.196 -2.253,-1.794 -0.71,-0.564 -1.421,-1.127 -2.131,-1.691 -0.041,-0.032 -0.08,-0.067 -0.124,-0.097 -0.148,-0.096 -0.218,-0.212 -0.238,-0.408 -0.054,-0.501 -0.543,-0.747 -0.97,-0.512 -0.209,0.116 -0.328,0.299 -0.332,0.544 -0.004,0.158 0.002,0.317 -0.003,0.475 -0.008,0.242 0.091,0.432 0.276,0.581 0.876,0.694 1.753,1.388 2.629,2.083 0.878,0.697 1.757,1.394 2.632,2.097 0.286,0.229 0.605,0.376 0.97,0.379 0.371,0.002 0.694,-0.14 0.985,-0.373 C -4.699,4.299 -3.843,3.624 -2.988,2.945 -2.089,2.231 -1.19,1.517 -0.292,0.802 -0.103,0.651 0.003,0.46 -0.008,0.212 -0.012,0.142 -0.009,0.071 -0.009,0.001 -0.006,0.001 -0.003,0.001 0,0"
       style="fill:#7b7979;fill-opacity:1;fill-rule:nonzero;stroke:none"
       transform="matrix(1.3333333,0,0,-1.3333333,14001.951,177.9388)"
       clip-path="url(#clipPath6655)" /></g></svg>
