<?xml version="1.0" encoding="UTF-8" standalone="no"?>
<!-- Created with Inkscape (http://www.inkscape.org/) -->

<svg
   width="5.2286215mm"
   height="5.2285204mm"
   viewBox="0 0 5.2286214 5.2285204"
   version="1.1"
   id="svg1"
   xml:space="preserve"
   sodipodi:docname="path6672.svg"
   inkscape:version="1.3.1 (91b66b0, 2023-11-16)"
   xmlns:inkscape="http://www.inkscape.org/namespaces/inkscape"
   xmlns:sodipodi="http://sodipodi.sourceforge.net/DTD/sodipodi-0.dtd"
   xmlns="http://www.w3.org/2000/svg"
   xmlns:svg="http://www.w3.org/2000/svg"><sodipodi:namedview
     id="namedview1"
     pagecolor="#ffffff"
     bordercolor="#666666"
     borderopacity="1.0"
     inkscape:showpageshadow="2"
     inkscape:pageopacity="0.0"
     inkscape:pagecheckerboard="0"
     inkscape:deskcolor="#d1d1d1"
     inkscape:document-units="mm"
     inkscape:zoom="25.40314"
     inkscape:cx="9.8806685"
     inkscape:cy="9.8806685"
     inkscape:window-width="1360"
     inkscape:window-height="699"
     inkscape:window-x="0"
     inkscape:window-y="0"
     inkscape:window-maximized="1"
     inkscape:current-layer="layer-MC0" /><defs
     id="defs1"><clipPath
       clipPathUnits="userSpaceOnUse"
       id="clipPath6671"><path
         d="M 0,591.499 H 595.276 V 0 H 0 Z"
         transform="translate(-101.11,-449.99611)"
         id="path6671" /></clipPath><clipPath
       clipPathUnits="userSpaceOnUse"
       id="clipPath6673"><path
         d="M 0,591.499 H 595.276 V 0 H 0 Z"
         transform="translate(-90.910752,-455.89261)"
         id="path6673" /></clipPath><clipPath
       clipPathUnits="userSpaceOnUse"
       id="clipPath6675"><path
         d="M 0,591.499 H 595.276 V 0 H 0 Z"
         transform="translate(-100.402,-450.80471)"
         id="path6675" /></clipPath></defs><g
     id="layer-MC0"
     transform="matrix(0.26458333,0,0,0.26458334,-3691.2517,-44.690558)"><path
       id="path6670"
       d="m 0,0 h -10.002 c -1.33,0 -2.409,1.079 -2.409,2.41 v 10.002 c 0,1.331 1.079,2.409 2.409,2.409 H 0 c 1.331,0 2.41,-1.078 2.41,-2.409 V 2.41 C 2.41,1.079 1.331,0 0,0"
       style="fill:#8fd1f5;fill-opacity:1;fill-rule:nonzero;stroke:none"
       transform="matrix(1.3333333,0,0,-1.3333333,13967.736,188.67053)"
       clip-path="url(#clipPath6671)" /><path
       id="path6672"
       d="m 0,0 v 0.063 c 0.024,0.021 0.029,0.051 0.033,0.08 0.009,0.063 0.03,0.123 0.058,0.179 0.009,0.02 0.016,0.039 0.019,0.06 0.012,0.092 0.036,0.176 0.076,0.262 0.252,0.54 0.507,1.08 0.736,1.63 0.114,0.275 0.214,0.555 0.352,0.819 0.126,0.239 0.247,0.481 0.354,0.728 0.123,0.284 0.307,0.517 0.548,0.707 0.073,0.058 0.15,0.091 0.242,0.096 H 2.622 C 2.819,4.597 2.981,4.497 3.138,4.383 3.296,4.269 3.413,4.133 3.395,3.921 3.394,3.908 3.396,3.896 3.399,3.883 3.424,3.778 3.479,3.734 3.587,3.731 3.659,3.73 3.729,3.746 3.797,3.771 3.981,3.837 4.166,3.902 4.351,3.969 4.542,4.039 4.731,4.029 4.919,3.954 5.111,3.877 5.288,3.77 5.454,3.645 5.662,3.487 5.829,3.287 6.011,3.103 6.055,3.057 6.098,3.011 6.139,2.962 6.376,2.676 6.68,2.612 7.023,2.706 7.257,2.771 7.48,2.868 7.708,2.95 7.916,3.025 8.13,3.072 8.35,3.085 8.57,3.097 8.763,3.019 8.936,2.886 9.11,2.751 9.26,2.59 9.418,2.438 9.918,1.959 10.399,1.463 10.82,0.91 10.908,0.795 11.025,0.697 11.058,0.545 V 0.431 C 11.041,0.42 11.044,0.4 11.039,0.386 11.004,0.27 10.936,0.187 10.82,0.141 10.665,0.078 10.51,0.021 10.348,-0.019 10.123,-0.072 9.938,-0.02 9.787,0.162 9.521,0.485 9.25,0.808 8.979,1.128 8.806,1.334 8.631,1.54 8.449,1.739 8.27,1.937 7.89,2.031 7.612,1.853 7.425,1.731 7.227,1.627 7.033,1.515 6.867,1.418 6.703,1.319 6.535,1.226 6.321,1.107 6.151,1.145 6.002,1.336 5.951,1.401 5.906,1.47 5.862,1.54 5.673,1.845 5.421,2.098 5.176,2.356 5.003,2.538 4.812,2.695 4.589,2.812 4.455,2.881 4.314,2.896 4.17,2.866 3.944,2.82 3.733,2.728 3.52,2.645 3.067,2.469 2.729,2.169 2.505,1.738 2.376,1.49 2.272,1.232 2.191,0.966 2.113,0.708 1.997,0.464 1.946,0.196 1.907,-0.009 1.763,-0.127 1.55,-0.156 1.463,-0.169 1.378,-0.152 1.291,-0.153 1.114,-0.155 0.937,-0.161 0.76,-0.166 0.684,-0.167 0.606,-0.153 0.531,-0.177 H 0.266 C 0.152,-0.155 0.052,-0.113 0,0"
       style="fill:#ffffff;fill-opacity:1;fill-rule:nonzero;stroke:none"
       transform="matrix(1.3333333,0,0,-1.3333333,13954.137,180.80853)"
       clip-path="url(#clipPath6673)" /><path
       id="path6674"
       d="m 0,0 h -8.436 c -1.331,0 -2.41,1.079 -2.41,2.41 v 8.436 c 0,1.331 1.079,2.41 2.41,2.41 H 0 c 1.331,0 2.41,-1.079 2.41,-2.41 V 2.41 C 2.41,1.079 1.331,0 0,0 Z"
       style="fill:none;stroke:#ffffff;stroke-width:0.5;stroke-linecap:butt;stroke-linejoin:miter;stroke-miterlimit:10;stroke-dasharray:none;stroke-opacity:1"
       transform="matrix(1.3333333,0,0,-1.3333333,13966.792,187.5924)"
       clip-path="url(#clipPath6675)" /></g></svg>
